# xmcd
#
# Track frame offsets:
#	150
#	13754
#	24543
#	33645
#	44919
#	58432
#	69690
#	85138
#	98069
#	108350
#	120201
#	130570
#	142179
#	154928
#	166005
#	175506
#	186302
#	196432
#	207433
#	219063
#	228856
#	239855
#	251631
#	262629
#	273566
#	284308
#	296828
#
# Disc length: 4119 seconds
#
# Revision: 1
# Processed by: cddbd v1.5.2PL0 Copyright (c) Steve Scherf et al.
# Submitted via: audiograbber 1.83.01
#
DISCID=9310151b
DTITLE=Various Artist - The Age Of Northern Soul
DYEAR=2012
DGENRE=Soul
TTITLE0=Etta James - Seven Day Fool
TTITLE1=Jimmy Ruffin - Don't Feel Sorry For Me
TTITLE2=Patience Valentine - If You Don't Come (You Better Call)
TTITLE3=Prince Conley - I'm Going Home
TTITLE4=The Del-Vikings - Bring Back Your Heart
TTITLE5=The Drifters - Drip Drop
TTITLE6=Barbara Dane - I'm On My Way
TTITLE7=The Fabulous Playboys - Honky Tonk Woman
TTITLE8=Irma Thomas - Don't Mess With My Man
TTITLE9=Nappy Brown - Coal Miner
TTITLE10=LaVern Baker and Jimmy Ricks - You're The Boss
TTITLE11=Benny Spellman - Ammerette
TTITLE12=The Temptations - Romance Without Finance
TTITLE13=Eugene Church - Jack Of All Trades
TTITLE14=The Royal Jokers - Hard Times
TTITLE15=Lillian Offitt - The Man Won't Work
TTITLE16=The Bobbettes - Mr. Johnny Q
TTITLE17=The 5 Royales - Take Me With You Baby
TTITLE18=Eddie Burns - Hard Hearted Woman
TTITLE19=Garlon Davis - Oh My Soul
TTITLE20=The O'Jays - Miracles
TTITLE21=Tiny Topsy - Just A Little Bit
TTITLE22=The Pentagons - I Wonder
TTITLE23=Ted Taylor and His Band - My Darling
TTITLE24=Freddie Gorman - The Day Will Come
TTITLE25=The Satintones - Faded Letter
TTITLE26=Fats Domino - It Keeps Raining
EXTD=
EXTT0=
EXTT1=
EXTT2=
EXTT3=
EXTT4=
EXTT5=
EXTT6=
EXTT7=
EXTT8=
EXTT9=
EXTT10=
EXTT11=
EXTT12=
EXTT13=
EXTT14=
EXTT15=
EXTT16=
EXTT17=
EXTT18=
EXTT19=
EXTT20=
EXTT21=
EXTT22=
EXTT23=
EXTT24=
EXTT25=
EXTT26=
PLAYORDER=
